<svg fill="none">
    <g clip-path="url(#clipPath2296)" id="g39" transform="matrix(0.43947937,0,0,0.4279876,-88.742299,7.4992551)">
        <path d="M 0,0 H 960 V 540 H 0 Z" id="path5" inkscape:connector-curvature="0" style="fill:#ffffff;fill-rule:evenodd" />
        <path d="m 737.83276,282.08636 v 0 c 0,138.4389 -113.78119,250.66577 -254.13742,250.66577 q -126.52741,0 -253.05481,-1.06781 -1.08263,-124.79898 -1.08263,-249.59796 v 0 c 0,-138.43889 113.78121,-250.66577 254.13744,-250.66577 v 0 c 140.35623,0 254.13742,112.22689 254.13742,250.66577 z" id="path7" inkscape:connector-curvature="0" style="fill:#9c27b0;fill-rule:evenodd" />
        <path d="m 737.83276,282.08636 v 0 c 0,138.4389 -113.78119,250.66577 -254.13742,250.66577 q -126.52741,0 -253.05481,-1.06781 -1.08263,-124.79898 -1.08263,-249.59796 v 0 c 0,-138.43889 113.78121,-250.66577 254.13744,-250.66577 v 0 c 140.35623,0 254.13742,112.22689 254.13742,250.66577 z" id="path9" inkscape:connector-curvature="0" style="fill-rule:evenodd;stroke:#701c7f;stroke-width:4;stroke-linecap:butt;stroke-linejoin:round" />
        <path d="m 519.59045,282.08636 v 0 c 0,-30.03828 29.15772,-54.38913 65.12555,-54.38913 v 0 c 35.96783,0 65.12555,24.35084 65.12555,54.38913 v 0 c 0,30.0383 -29.15772,54.38916 -65.12555,54.38916 v 0 c -35.96783,0 -65.12555,-24.35086 -65.12555,-54.38916 z" id="path11" inkscape:connector-curvature="0" style="fill:#ffd966;fill-rule:evenodd" />
        <path d="m 519.59045,282.08636 v 0 c 0,-30.03828 29.15772,-54.38913 65.12555,-54.38913 v 0 c 35.96783,0 65.12555,24.35084 65.12555,54.38913 v 0 c 0,30.0383 -29.15772,54.38916 -65.12555,54.38916 v 0 c -35.96783,0 -65.12555,-24.35086 -65.12555,-54.38916 z" id="path13" inkscape:connector-curvature="0" style="fill-rule:evenodd;stroke:#f6b26b;stroke-width:4;stroke-linecap:butt;stroke-linejoin:round" />
        <path d="m 559.25726,247.11275 v 0 c 0,-10.7229 11.39825,-19.41551 25.45874,-19.41551 v 0 c 14.06049,0 25.45874,8.69261 25.45874,19.41551 v 0 c 0,10.72289 -11.39825,19.41551 -25.45874,19.41551 v 0 c -14.06049,0 -25.45874,-8.69263 -25.45874,-19.41551 z" id="path15" inkscape:connector-curvature="0" style="fill:#434343;fill-rule:evenodd" />
        <path d="m 559.25726,247.11275 v 0 c 0,-10.7229 11.39825,-19.41551 25.45874,-19.41551 v 0 c 14.06049,0 25.45874,8.69261 25.45874,19.41551 v 0 c 0,10.72289 -11.39825,19.41551 -25.45874,19.41551 v 0 c -14.06049,0 -25.45874,-8.69263 -25.45874,-19.41551 z" id="path17" inkscape:connector-curvature="0" style="fill-rule:evenodd;stroke:#666666;stroke-width:4;stroke-linecap:butt;stroke-linejoin:round" />
        <path d="m 533.6699,314.54767 v 0 c 0,-11.16986 9.05493,-20.22482 20.22479,-20.22482 h 61.64258 v 0 c 5.36395,0 10.50818,2.13083 14.30109,5.92373 3.79284,3.79288 5.9237,8.93714 5.9237,14.30109 v 55.4707 c 0,11.16986 -9.05499,20.22483 -20.22479,20.22483 h -61.64258 c -11.16986,0 -20.22479,-9.05497 -20.22479,-20.22483 z" id="path19" inkscape:connector-curvature="0" style="fill:#d9d9d9;fill-rule:evenodd" />
        <path d="m 533.6699,314.54767 v 0 c 0,-11.16986 9.05493,-20.22482 20.22479,-20.22482 h 61.64258 v 0 c 5.36395,0 10.50818,2.13083 14.30109,5.92373 3.79284,3.79288 5.9237,8.93714 5.9237,14.30109 v 55.4707 c 0,11.16986 -9.05499,20.22483 -20.22479,20.22483 h -61.64258 c -11.16986,0 -20.22479,-9.05497 -20.22479,-20.22483 z" id="path21" inkscape:connector-curvature="0" style="fill-rule:evenodd;stroke:#999999;stroke-width:4;stroke-linecap:butt;stroke-linejoin:round" />
        <path d="m 382.56754,111.65421 v 0 c 0,-57.662163 45.27646,-104.40658 101.12781,-104.40658 v 0 c 26.82077,0 52.543,10.999947 71.50815,30.579979 18.96515,19.580032 29.61963,46.136253 29.61963,73.826601 v 0 c 0,57.66216 -45.27643,104.40658 -101.12778,104.40658 v 0 c -55.85135,0 -101.12781,-46.74442 -101.12781,-104.40658 z" id="path23" inkscape:connector-curvature="0" style="fill:#ffffff;fill-rule:evenodd" />
        <path d="m 382.56754,111.65421 v 0 c 0,-57.662163 45.27646,-104.40658 101.12781,-104.40658 v 0 c 26.82077,0 52.543,10.999947 71.50815,30.579979 18.96515,19.580032 29.61963,46.136253 29.61963,73.826601 v 0 c 0,57.66216 -45.27643,104.40658 -101.12778,104.40658 v 0 c -55.85135,0 -101.12781,-46.74442 -101.12781,-104.40658 z" id="path25" inkscape:connector-curvature="0" style="fill-rule:evenodd;stroke:#d9d9d9;stroke-width:4;stroke-linecap:butt;stroke-linejoin:round" />
        <path d="m 592.6879,111.65421 v 0 c 0,-54.679638 42.51324,-99.00624 94.95599,-99.00624 v 0 c 25.1839,0 49.3363,10.430984 67.14398,28.998253 17.80774,18.567272 27.81201,43.749897 27.81201,70.007977 v 0 c 0,54.67964 -42.51324,99.00623 -94.95599,99.00623 v 0 c -52.44275,0 -94.95599,-44.3266 -94.95599,-99.00623 z" id="path27" inkscape:connector-curvature="0" style="fill:#ffffff;fill-rule:evenodd" />
        <path d="m 592.6879,111.65421 v 0 c 0,-54.679638 42.51324,-99.00624 94.95599,-99.00624 v 0 c 25.1839,0 49.3363,10.430984 67.14398,28.998253 17.80774,18.567272 27.81201,43.749897 27.81201,70.007977 v 0 c 0,54.67964 -42.51324,99.00623 -94.95599,99.00623 v 0 c -52.44275,0 -94.95599,-44.3266 -94.95599,-99.00623 z" id="path29" inkscape:connector-curvature="0" style="fill-rule:evenodd;stroke:#d9d9d9;stroke-width:4;stroke-linecap:butt;stroke-linejoin:round" />
        <path d="m 635.7621,93.84595 v 0 c 0,-20.84217 16.92468,-37.73809 37.80237,-37.73809 v 0 c 10.02582,0 19.64099,3.975964 26.73029,11.05323 7.08935,7.077263 11.07208,16.676094 11.07208,26.68486 v 0 c 0,20.84217 -16.92468,37.7381 -37.80237,37.7381 v 0 c -20.87769,0 -37.80237,-16.89593 -37.80237,-37.7381 z" id="path31" inkscape:connector-curvature="0" style="fill:#000000;fill-rule:evenodd" />
        <path d="m 635.7621,93.84595 v 0 c 0,-20.84217 16.92468,-37.73809 37.80237,-37.73809 v 0 c 10.02582,0 19.64099,3.975964 26.73029,11.05323 7.08935,7.077263 11.07208,16.676094 11.07208,26.68486 v 0 c 0,20.84217 -16.92468,37.7381 -37.80237,37.7381 v 0 c -20.87769,0 -37.80237,-16.89593 -37.80237,-37.7381 z" id="path33" inkscape:connector-curvature="0" style="fill-rule:evenodd;stroke:#ffffff;stroke-width:4;stroke-linecap:butt;stroke-linejoin:round" />
        <path d="m 445.89297,129.9875 v 0 c 0,-20.84216 16.92468,-37.738083 37.80237,-37.738083 v 0 c 10.02582,0 19.64099,3.97596 26.73032,11.053233 7.08935,7.07726 11.07208,16.67609 11.07208,26.68485 v 0 c 0,20.84218 -16.92471,37.7381 -37.8024,37.7381 v 0 c -20.87769,0 -37.80237,-16.89592 -37.80237,-37.7381 z" id="path35" inkscape:connector-curvature="0" style="fill:#000000;fill-rule:evenodd" />
        <path d="m 445.89297,129.9875 v 0 c 0,-20.84216 16.92468,-37.738083 37.80237,-37.738083 v 0 c 10.02582,0 19.64099,3.97596 26.73032,11.053233 7.08935,7.07726 11.07208,16.67609 11.07208,26.68485 v 0 c 0,20.84218 -16.92471,37.7381 -37.8024,37.7381 v 0 c -20.87769,0 -37.80237,-16.89592 -37.80237,-37.7381 z" id="path37" inkscape:connector-curvature="0" style="fill-rule:evenodd;stroke:#ffffff;stroke-width:4;stroke-linecap:butt;stroke-linejoin:round" />
    </g>
</svg>
